<svg xmlns="http://www.w3.org/2000/svg" width="100%" height="100%" viewBox="0 0 800 600">
  <!-- Background -->
  <rect width="800" height="600" fill="#001f3f" />

  <!-- Stars -->
  <circle cx="50" cy="30" r="1" fill="white" />
  <circle cx="100" cy="80" r="0.8" fill="white" />
  <circle cx="150" cy="150" r="0.9" fill="white" />
  <circle cx="200" cy="200" r="1" fill="white" />
  <circle cx="250" cy="250" r="0.7" fill="white" />
  <circle cx="300" cy="50" r="0.8" fill="white" />
  <circle cx="350" cy="100" r="0.6" fill="white" />
  <circle cx="400" cy="150" r="0.9" fill="white" />
  <circle cx="450" cy="200" r="1" fill="white" />
  <circle cx="500" cy="120" r="0.7" fill="white" />
  <circle cx="550" cy="180" r="0.8" fill="white" />
  <circle cx="600" cy="80" r="1" fill="white" />
  <circle cx="650" cy="250" r="0.7" fill="white" />
  <circle cx="700" cy="300" r="0.8" fill="white" />
  <circle cx="750" cy="350" r="0.9" fill="white" />
  <circle cx="50" cy="400" r="0.6" fill="white" />
  <circle cx="100" cy="450" r="1" fill="white" />
  <circle cx="150" cy="500" r="0.7" fill="white" />
  <circle cx="200" cy="550" r="0.8" fill="white" />
  <circle cx="250" cy="300" r="0.9" fill="white" />
  <circle cx="300" cy="400" r="0.6" fill="white" />
  <circle cx="350" cy="500" r="1" fill="white" />
  <circle cx="400" cy="550" r="0.7" fill="white" />
  <circle cx="450" cy="350" r="0.9" fill="white" />
  <circle cx="500" cy="450" r="0.8" fill="white" />
  <circle cx="550" cy="550" r="0.7" fill="white" />
  <circle cx="600" cy="500" r="0.8" fill="white" />
  <circle cx="650" cy="400" r="1" fill="white" />
  <circle cx="700" cy="450" r="0.9" fill="white" />
  <circle cx="750" cy="480" r="0.6" fill="white" />
</svg>
